<mxfile host="app.diagrams.net" modified="2020-11-09T13:58:02.077Z" agent="5.0 (Macintosh; Intel Mac OS X 10_15_7) AppleWebKit/537.36 (KHTML, like Gecko) Chrome/86.0.4240.183 Safari/537.36" etag="HRAnueZPpL9MAMhu6CbQ" version="13.9.2" type="github">
  <diagram id="Xuyy6AfVwZVGyWw7SfYj" name="Page-1">
    <mxGraphModel dx="975" dy="461" grid="1" gridSize="10" guides="1" tooltips="1" connect="1" arrows="1" fold="1" page="1" pageScale="1" pageWidth="1654" pageHeight="1169" math="0" shadow="0">
      <root>
        <mxCell id="0" />
        <mxCell id="1" parent="0" />
        <mxCell id="JgnCPHGrmHkcHbB0CMik-1" value="" style="shape=mxgraph.bpmn.shape;html=1;verticalLabelPosition=bottom;labelBackgroundColor=#ffffff;verticalAlign=top;align=center;perimeter=ellipsePerimeter;outlineConnect=0;outline=standard;symbol=general;fillColor=#d5e8d4;strokeColor=#82b366;" vertex="1" parent="1">
          <mxGeometry x="60" y="570" width="50" height="50" as="geometry" />
        </mxCell>
        <mxCell id="JgnCPHGrmHkcHbB0CMik-3" value="" style="shape=mxgraph.bpmn.shape;html=1;verticalLabelPosition=bottom;labelBackgroundColor=#ffffff;verticalAlign=top;align=center;perimeter=ellipsePerimeter;outlineConnect=0;outline=end;symbol=general;fillColor=#f8cecc;strokeColor=#b85450;" vertex="1" parent="1">
          <mxGeometry x="1530" y="570" width="50" height="50" as="geometry" />
        </mxCell>
        <mxCell id="JgnCPHGrmHkcHbB0CMik-8" value="" style="endArrow=block;endFill=1;endSize=6;html=1;" edge="1" parent="1">
          <mxGeometry width="100" relative="1" as="geometry">
            <mxPoint x="110" y="594.29" as="sourcePoint" />
            <mxPoint x="150" y="594.29" as="targetPoint" />
            <Array as="points" />
          </mxGeometry>
        </mxCell>
        <mxCell id="JgnCPHGrmHkcHbB0CMik-12" value="" style="shape=message;whiteSpace=wrap;html=1;outlineConnect=0;fillColor=#000000;strokeColor=#ffffff;strokeWidth=2;" vertex="1" parent="1">
          <mxGeometry x="65" y="580" width="40" height="30" as="geometry" />
        </mxCell>
        <mxCell id="JgnCPHGrmHkcHbB0CMik-15" value="Elaborer structure du journal" style="shape=ext;rounded=1;html=1;whiteSpace=wrap;" vertex="1" parent="1">
          <mxGeometry x="150" y="555" width="120" height="80" as="geometry" />
        </mxCell>
        <mxCell id="JgnCPHGrmHkcHbB0CMik-17" value="Envoyer les besoins&lt;br&gt;en terne d&#39;espace&lt;br&gt;" style="text;html=1;strokeColor=none;fillColor=none;align=center;verticalAlign=middle;whiteSpace=wrap;rounded=0;" vertex="1" parent="1">
          <mxGeometry x="65" y="656" width="40" height="20" as="geometry" />
        </mxCell>
      </root>
    </mxGraphModel>
  </diagram>
</mxfile>
